<?xml version="1.0" encoding="utf-8"?>
<!-- Generator: Adobe Illustrator 23.0.3, SVG Export Plug-In . SVG Version: 6.00 Build 0)  -->
<svg version="1.1" id="Layer_1" xmlns="http://www.w3.org/2000/svg" xmlns:xlink="http://www.w3.org/1999/xlink" x="0px" y="0px"
	 viewBox="0 0 512 512" style="enable-background:new 0 0 512 512;" xml:space="preserve">
<style type="text/css">
	.st0{fill:#ECEEF1;}
	.st1{fill:#083344;}
	.st2{fill:#F6A316;}
	.st3{fill:#ECEEF1;stroke:#083344;stroke-width:15;stroke-linecap:round;stroke-linejoin:round;stroke-miterlimit:10;}
</style>
<path class="st2" d="M408.09,462H103.91C74.14,462,50,437.86,50,408.09V103.91C50,74.14,74.14,50,103.91,50h304.17
	C437.86,50,462,74.14,462,103.91v304.17C462,437.86,437.86,462,408.09,462z"/>
<g>
	<path class="st3" d="M308.6,339.09v44.53c0,0.89,0,1.79-0.06,2.68H203.52c-0.06-0.89-0.06-1.79-0.06-2.68v-44.53
		c0-28.91,23.66-52.57,52.57-52.57c14.42,0,27.6,5.9,37.13,15.44C302.7,311.49,308.6,324.67,308.6,339.09z"/>
	<path class="st3" d="M396.4,342.85v37.02c0,2.21-0.18,4.35-0.54,6.44H309.5c-0.36-2.09-0.54-4.23-0.54-6.44v-37.02
		c0-24.08,19.67-43.75,43.75-43.75c12.04,0,22.95,4.95,30.88,12.82C391.46,319.9,396.4,330.81,396.4,342.85z"/>
	<path class="st3" d="M203.04,342.85v37.02c0,2.21-0.18,4.35-0.54,6.44h-86.37c-0.36-2.09-0.54-4.23-0.54-6.44v-37.02
		c0-24.08,19.67-43.75,43.69-43.75c12.04,0,22.95,4.95,30.94,12.82C198.09,319.9,203.04,330.81,203.04,342.85z"/>
	<line class="st3" x1="309.5" y1="386.3" x2="308.54" y2="386.3"/>
	<line class="st3" x1="203.52" y1="386.3" x2="202.5" y2="386.3"/>
	<circle class="st3" cx="159.32" cy="258.68" r="20.12"/>
	<circle class="st3" cx="352.68" cy="258.68" r="20.12"/>
	<circle class="st3" cx="256.03" cy="240.44" r="20.12"/>
</g>
<polygon class="st3" points="256,134.75 264.27,151.52 282.77,154.21 269.39,167.25 272.55,185.68 256,176.98 239.45,185.68 
	242.61,167.25 229.23,154.21 247.73,151.52 "/>
</svg>
